<?xml version="1.0" encoding="UTF-8" standalone="no"?>
<!DOCTYPE svg PUBLIC "-//W3C//DTD SVG 1.1//EN" "http://www.w3.org/Graphics/SVG/1.1/DTD/svg11.dtd">
<svg width="100%" height="100%" viewBox="0 0 500 500" version="1.1" xmlns="http://www.w3.org/2000/svg" xmlns:xlink="http://www.w3.org/1999/xlink" xml:space="preserve" xmlns:serif="http://www.serif.com/" style="fill-rule:evenodd;clip-rule:evenodd;stroke-linejoin:round;stroke-miterlimit:2;">
    <g transform="matrix(1.44296,0,0,2.05694,-130.883,-365.541)">
        <path d="M436.137,408.702C436.699,411.758 435.359,414.835 432.459,417.149C429.559,419.462 425.38,420.788 420.988,420.788C362.818,420.79 165.1,420.79 106.929,420.79C102.537,420.79 98.357,419.464 95.457,417.15C92.557,414.836 91.216,411.758 91.778,408.702C97.942,374.663 130.249,347.887 180.797,347.887L347.121,347.887C397.669,347.887 429.976,374.663 436.137,408.702ZM259.124,350.965L233.614,396.339C232.601,398.14 233.209,400.191 235.161,401.56L259.059,418.325C260.358,419.236 262.121,419.749 263.959,419.749C265.797,419.749 267.56,419.236 268.859,418.325L292.757,401.56C294.709,400.191 295.316,398.14 294.304,396.339L268.794,350.965C268.011,349.572 266.093,348.656 263.959,348.656C261.824,348.656 259.907,349.572 259.124,350.965Z" style="fill:white;"/>
    </g>
    <g transform="matrix(1.39301,0,0,1.39301,-42.6879,-118.341)">
        <circle cx="210.112" cy="199.813" r="114.859" style="fill:white;"/>
    </g>
</svg>
