<?xml version="1.0" encoding="UTF-8" standalone="no"?>
<!DOCTYPE svg PUBLIC "-//W3C//DTD SVG 1.1//EN" "http://www.w3.org/Graphics/SVG/1.1/DTD/svg11.dtd">
<svg width="100%" height="100%" viewBox="0 0 500 500" version="1.1" xmlns="http://www.w3.org/2000/svg" xmlns:xlink="http://www.w3.org/1999/xlink" xml:space="preserve" xmlns:serif="http://www.serif.com/" style="fill-rule:evenodd;clip-rule:evenodd;stroke-linejoin:round;stroke-miterlimit:2;">
    <g transform="matrix(1.07084,0,0,0.934135,-59.9371,-51.4292)">
        <path d="M275.427,120.544L275.427,209.021C275.427,245.165 249.828,274.51 218.298,274.51L113.101,274.51C81.571,274.51 55.972,245.165 55.972,209.021L55.972,120.544C55.972,84.4 81.571,55.055 113.101,55.055L218.298,55.055C249.828,55.055 275.427,84.4 275.427,120.544Z" style="fill:white;"/>
    </g>
    <g transform="matrix(1.07084,0,0,1.20754,-59.9371,168.518)">
        <path d="M275.427,113.439L275.427,216.127C275.427,248.349 245.926,274.51 209.59,274.51L121.808,274.51C85.472,274.51 55.972,248.349 55.972,216.127L55.972,113.439C55.972,81.216 85.472,55.055 121.808,55.055L209.59,55.055C245.926,55.055 275.427,81.216 275.427,113.439Z" style="fill:white;"/>
    </g>
    <g transform="matrix(1.07084,0,0,1.20754,205.063,-66.4817)">
        <path d="M275.427,113.439L275.427,216.127C275.427,248.349 245.926,274.51 209.59,274.51L121.808,274.51C85.472,274.51 55.972,248.349 55.972,216.127L55.972,113.439C55.972,81.216 85.472,55.055 121.808,55.055L209.59,55.055C245.926,55.055 275.427,81.216 275.427,113.439Z" style="fill:white;"/>
    </g>
    <g transform="matrix(1.07084,0,0,0.934135,205.063,243.571)">
        <path d="M275.427,120.892L275.427,208.674C275.427,245.01 249.692,274.51 217.995,274.51L113.404,274.51C81.706,274.51 55.972,245.01 55.972,208.674L55.972,120.892C55.972,84.556 81.706,55.055 113.404,55.055L217.995,55.055C249.692,55.055 275.427,84.556 275.427,120.892Z" style="fill:white;"/>
    </g>
</svg>
