<?xml version="1.0" encoding="UTF-8" standalone="no"?>
<!DOCTYPE svg PUBLIC "-//W3C//DTD SVG 1.1//EN" "http://www.w3.org/Graphics/SVG/1.1/DTD/svg11.dtd">
<svg width="100%" height="100%" viewBox="0 0 500 500" version="1.1" xmlns="http://www.w3.org/2000/svg" xmlns:xlink="http://www.w3.org/1999/xlink" xml:space="preserve" xmlns:serif="http://www.serif.com/" style="fill-rule:evenodd;clip-rule:evenodd;stroke-linejoin:round;stroke-miterlimit:2;">
    <g transform="matrix(1.81113,0,0,1.81113,-167.266,-167.015)">
        <path d="M230.39,92.216C306.574,92.216 368.426,154.068 368.426,230.252C368.426,306.436 306.574,368.287 230.39,368.287C154.206,368.287 92.355,306.436 92.355,230.252C92.355,154.068 154.206,92.216 230.39,92.216ZM230.39,119.823C169.443,119.823 119.962,169.305 119.962,230.252C119.962,291.199 169.443,340.68 230.39,340.68C291.338,340.68 340.819,291.199 340.819,230.252C340.819,169.305 291.338,119.823 230.39,119.823Z" style="fill:white;"/>
    </g>
    <g transform="matrix(31.3255,0,0,31.3255,-4914.27,-6134.79)">
        <g transform="matrix(12,0,0,12,162.098,208.381)">
            <path d="M0.171,-0.323C0.171,-0.337 0.176,-0.349 0.185,-0.359C0.195,-0.369 0.207,-0.374 0.221,-0.374C0.249,-0.374 0.275,-0.38 0.298,-0.39C0.32,-0.4 0.338,-0.415 0.352,-0.435C0.365,-0.455 0.372,-0.48 0.372,-0.51C0.372,-0.536 0.366,-0.558 0.354,-0.577C0.342,-0.597 0.327,-0.612 0.307,-0.623C0.287,-0.634 0.264,-0.639 0.239,-0.639C0.217,-0.639 0.197,-0.635 0.178,-0.626C0.159,-0.618 0.143,-0.606 0.128,-0.592C0.119,-0.584 0.109,-0.578 0.097,-0.574C0.084,-0.571 0.072,-0.573 0.059,-0.583C0.045,-0.592 0.038,-0.604 0.037,-0.618C0.035,-0.632 0.04,-0.645 0.052,-0.657C0.075,-0.682 0.102,-0.702 0.135,-0.717C0.167,-0.731 0.202,-0.739 0.239,-0.739C0.282,-0.739 0.322,-0.729 0.357,-0.709C0.392,-0.689 0.42,-0.662 0.441,-0.628C0.462,-0.594 0.472,-0.555 0.472,-0.51C0.472,-0.479 0.467,-0.451 0.457,-0.426C0.447,-0.4 0.433,-0.378 0.414,-0.36C0.396,-0.341 0.374,-0.326 0.35,-0.315C0.325,-0.304 0.299,-0.297 0.27,-0.293C0.268,-0.293 0.268,-0.292 0.268,-0.292C0.269,-0.292 0.27,-0.292 0.271,-0.292L0.271,-0.232C0.271,-0.218 0.266,-0.206 0.256,-0.196C0.247,-0.186 0.235,-0.182 0.221,-0.182C0.206,-0.182 0.194,-0.186 0.185,-0.196C0.175,-0.206 0.171,-0.218 0.171,-0.232L0.171,-0.323ZM0.218,-0C0.201,-0 0.188,-0.005 0.179,-0.014C0.17,-0.023 0.166,-0.036 0.166,-0.053L0.166,-0.071C0.166,-0.088 0.17,-0.101 0.179,-0.11C0.188,-0.119 0.201,-0.124 0.218,-0.124L0.228,-0.124C0.245,-0.124 0.258,-0.119 0.267,-0.11C0.276,-0.101 0.28,-0.088 0.28,-0.071L0.28,-0.053C0.28,-0.036 0.276,-0.023 0.267,-0.014C0.258,-0.005 0.245,-0 0.228,-0L0.218,-0Z" style="fill:white;fill-rule:nonzero;"/>
        </g>
        <g transform="matrix(12,0,0,12,168.254,208.381)">
        </g>
    </g>
</svg>
