<?xml version="1.0" encoding="UTF-8" standalone="no"?>
<!DOCTYPE svg PUBLIC "-//W3C//DTD SVG 1.1//EN" "http://www.w3.org/Graphics/SVG/1.1/DTD/svg11.dtd">
<svg width="100%" height="100%" viewBox="0 0 500 500" version="1.1" xmlns="http://www.w3.org/2000/svg" xmlns:xlink="http://www.w3.org/1999/xlink" xml:space="preserve" xmlns:serif="http://www.serif.com/" style="fill-rule:evenodd;clip-rule:evenodd;stroke-linejoin:round;stroke-miterlimit:2;">
    <g transform="matrix(1.24297,0,0,1.24297,-30.7978,-14.6559)">
        <path d="M306.36,92.243C372.964,92.243 427.038,146.317 427.038,212.921C427.038,279.526 372.964,333.6 306.36,333.6C239.756,333.6 185.682,279.526 185.682,212.921C185.682,146.317 239.756,92.243 306.36,92.243ZM306.36,132.469C261.957,132.469 225.908,168.519 225.908,212.921C225.908,257.324 261.957,293.374 306.36,293.374C350.763,293.374 386.812,257.324 386.812,212.921C386.812,168.519 350.763,132.469 306.36,132.469Z" style="fill:white;"/>
    </g>
    <g transform="matrix(0.892968,-0.411413,0.24166,0.524521,265.973,360.576)">
        <path d="M162.383,222.454L162.383,318.003C162.383,334.71 154.415,348.275 144.601,348.275L109.038,348.275C99.225,348.275 91.257,334.71 91.257,318.003L91.257,222.454C91.257,205.747 99.225,192.182 109.038,192.182L144.601,192.182C154.415,192.182 162.383,205.747 162.383,222.454Z" style="fill:white;"/>
    </g>
    <g transform="matrix(0.957709,0,0,1.05427,-50.7122,-56.5161)">
        <path d="M373.94,461.533C365.01,473.358 350.026,481.121 333.062,481.121L102.489,481.121C75.149,481.121 52.952,460.957 52.952,436.121L52.952,98.607C52.952,73.771 75.149,53.607 102.489,53.607L333.062,53.607C360.403,53.607 382.6,73.771 382.6,98.607L382.6,118.275C355.062,122.972 329.577,132.984 307.488,147.092L98.515,147.092C88.276,147.092 79.964,154.643 79.964,163.944C79.964,173.245 88.276,180.796 98.515,180.796L267.889,180.796C258.569,191.309 250.556,202.816 244.073,215.114L98.515,215.114C88.276,215.114 79.964,222.665 79.964,231.966C79.964,241.267 88.276,248.818 98.515,248.818L230.794,248.818C227.803,259.884 225.97,271.361 225.416,283.136L98.515,283.136C88.276,283.136 79.964,290.687 79.964,299.988C79.964,309.289 88.276,316.84 98.515,316.84L227.364,316.84C229.316,328.708 232.578,340.189 237.013,351.158L98.515,351.158C88.276,351.158 79.964,358.709 79.964,368.01C79.964,377.311 88.276,384.862 98.515,384.862L255.388,384.862C264.247,397.49 274.835,409.021 286.847,419.18L98.515,419.18C88.276,419.18 79.964,426.731 79.964,436.032C79.964,445.333 88.276,452.884 98.515,452.884L337.037,452.884C338.946,452.884 340.788,452.621 342.522,452.134C352.585,456.047 363.086,459.207 373.94,461.533ZM355.588,95.922C355.588,86.622 347.275,79.07 337.037,79.07L98.515,79.07C88.276,79.07 79.964,86.622 79.964,95.922C79.964,105.223 88.276,112.774 98.515,112.774L337.037,112.774C347.275,112.774 355.588,105.223 355.588,95.922Z" style="fill:white;"/>
    </g>
</svg>
