<?xml version="1.0" encoding="UTF-8" standalone="no"?>
<!DOCTYPE svg PUBLIC "-//W3C//DTD SVG 1.1//EN" "http://www.w3.org/Graphics/SVG/1.1/DTD/svg11.dtd">
<svg width="100%" height="100%" viewBox="0 0 500 500" version="1.1" xmlns="http://www.w3.org/2000/svg" xmlns:xlink="http://www.w3.org/1999/xlink" xml:space="preserve" xmlns:serif="http://www.serif.com/" style="fill-rule:evenodd;clip-rule:evenodd;stroke-linejoin:round;stroke-miterlimit:2;">
    <g transform="matrix(22.7273,0,0,22.7273,-22.7273,-22.7273)">
        <path d="M12,23C10.24,23 8.577,22.587 7.102,21.852C6.71,21.657 6.262,21.592 5.839,21.705L3.391,22.36C2.328,22.645 1.355,21.672 1.64,20.609L2.295,18.161C2.408,17.738 2.343,17.29 2.148,16.898C1.413,15.423 1,13.76 1,12C1,5.925 5.925,1 12,1C18.075,1 23,5.925 23,12C23,18.075 18.075,23 12,23ZM10.3,12C10.3,12.939 11.061,13.7 12,13.7C12.939,13.7 13.7,12.939 13.7,12C13.7,11.061 12.939,10.3 12,10.3C11.061,10.3 10.3,11.061 10.3,12ZM5.019,12C5.019,12.939 5.781,13.7 6.719,13.7C7.658,13.7 8.419,12.939 8.419,12C8.419,11.061 7.658,10.3 6.719,10.3C5.781,10.3 5.019,11.061 5.019,12ZM15.58,12C15.58,12.939 16.341,13.7 17.28,13.7C18.219,13.7 18.98,12.939 18.98,12C18.98,11.061 18.219,10.3 17.28,10.3C16.341,10.3 15.58,11.061 15.58,12Z" style="fill:white;"/>
    </g>
</svg>
