<?xml version="1.0" encoding="UTF-8" standalone="no"?>
<!DOCTYPE svg PUBLIC "-//W3C//DTD SVG 1.1//EN" "http://www.w3.org/Graphics/SVG/1.1/DTD/svg11.dtd">
<svg width="100%" height="100%" viewBox="0 0 500 500" version="1.1" xmlns="http://www.w3.org/2000/svg" xmlns:xlink="http://www.w3.org/1999/xlink" xml:space="preserve" xmlns:serif="http://www.serif.com/" style="fill-rule:evenodd;clip-rule:evenodd;stroke-linejoin:round;stroke-miterlimit:2;">
    <g transform="matrix(25.254,0,0,25.254,-53.0479,-52.7443)">
        <path d="M21,12C21,14.03 20.038,15.851 18.707,17.36C16.855,19.459 14.305,20.944 13.104,21.57C12.778,21.74 12.608,21.809 12.382,21.853L12,21.887L11.618,21.853C11.392,21.809 11.222,21.74 10.896,21.57C9.695,20.944 7.145,19.459 5.293,17.36C3.962,15.851 3,14.03 3,12L3,8.218C3,7.232 3.035,6.743 3.196,6.319C3.369,5.864 3.651,5.457 4.016,5.135C4.357,4.836 4.803,4.631 5.725,4.285L11.087,2.274C11.397,2.158 11.555,2.112 11.714,2.089L12.286,2.089C12.445,2.112 12.603,2.158 12.913,2.274L18.275,4.285C19.197,4.631 19.644,4.836 19.983,5.135C20.349,5.457 20.631,5.864 20.804,6.319C20.965,6.743 21,7.232 21,8.218L21,12ZM12,13.562C11.235,13.562 10.614,14.183 10.614,14.948C10.614,15.713 11.235,16.334 12,16.334C12.765,16.334 13.386,15.713 13.386,14.948C13.386,14.183 12.765,13.562 12,13.562ZM13.386,7.678C13.386,6.913 12.765,6.292 12,6.292C11.235,6.292 10.614,6.913 10.614,7.678L10.614,11.439C10.614,12.204 11.235,12.825 12,12.825C12.765,12.825 13.386,12.204 13.386,11.439L13.386,7.678Z" style="fill:white;"/>
    </g>
</svg>
