<?xml version="1.0" encoding="UTF-8" standalone="no"?>
<!DOCTYPE svg PUBLIC "-//W3C//DTD SVG 1.1//EN" "http://www.w3.org/Graphics/SVG/1.1/DTD/svg11.dtd">
<svg width="100%" height="100%" viewBox="0 0 500 500" version="1.1" xmlns="http://www.w3.org/2000/svg" xmlns:xlink="http://www.w3.org/1999/xlink" xml:space="preserve" xmlns:serif="http://www.serif.com/" style="fill-rule:evenodd;clip-rule:evenodd;stroke-linejoin:round;stroke-miterlimit:2;">
    <g transform="matrix(27.5731,0,0,27.5731,-80.8771,-80.8771)">
        <path d="M10.65,3C11.22,2.911 12.78,2.911 13.35,3C13.645,3.046 13.931,3.27 14.068,3.534C14.289,3.959 14.673,5.548 14.673,5.548C14.673,5.548 16.067,4.696 16.523,4.551C16.808,4.461 17.168,4.506 17.409,4.681C17.875,5.021 18.979,6.125 19.319,6.591C19.495,6.832 19.539,7.192 19.449,7.477C19.304,7.933 18.452,9.328 18.452,9.328C18.452,9.328 20.041,9.711 20.466,9.932C20.73,10.069 20.954,10.355 21,10.65C21.089,11.22 21.089,12.78 21,13.35C20.954,13.645 20.73,13.931 20.466,14.068C20.041,14.289 18.452,14.672 18.452,14.672C18.452,14.672 19.304,16.067 19.449,16.523C19.539,16.808 19.495,17.168 19.319,17.409C18.979,17.875 17.875,18.979 17.409,19.319C17.168,19.494 16.808,19.539 16.523,19.449C16.067,19.304 14.673,18.452 14.673,18.452C14.673,18.452 14.289,20.041 14.068,20.466C13.931,20.73 13.645,20.954 13.35,21C12.78,21.089 11.22,21.089 10.65,21C10.355,20.954 10.069,20.73 9.932,20.466C9.711,20.041 9.328,18.452 9.328,18.452C9.328,18.452 7.933,19.304 7.477,19.449C7.192,19.539 6.832,19.495 6.591,19.319C6.125,18.979 5.021,17.875 4.681,17.409C4.506,17.168 4.461,16.808 4.551,16.523C4.696,16.067 5.548,14.673 5.548,14.673C5.548,14.673 3.959,14.289 3.534,14.068C3.27,13.931 3.046,13.645 3,13.35C2.911,12.78 2.911,11.22 3,10.65C3.046,10.355 3.27,10.069 3.534,9.932C3.959,9.711 5.548,9.328 5.548,9.328C5.548,9.328 4.696,7.933 4.551,7.477C4.461,7.192 4.506,6.832 4.681,6.591C5.021,6.125 6.125,5.021 6.591,4.681C6.832,4.506 7.192,4.461 7.477,4.551C7.933,4.696 9.328,5.548 9.328,5.548C9.328,5.548 9.711,3.959 9.932,3.534C10.069,3.27 10.355,3.046 10.65,3ZM12,8.373C9.998,8.373 8.373,9.998 8.373,12C8.373,14.002 9.998,15.627 12,15.627C14.002,15.627 15.627,14.002 15.627,12C15.627,9.998 14.002,8.373 12,8.373Z" style="fill:white;"/>
    </g>
</svg>
